<?xml version="1.0" encoding="UTF-8"?>
<!DOCTYPE svg PUBLIC "-//W3C//DTD SVG 1.1//EN" "http://www.w3.org/Graphics/SVG/1.1/DTD/svg11.dtd">
<svg xmlns="http://www.w3.org/2000/svg" version="1.1" width="376px" height="40px" style="shape-rendering:geometricPrecision; text-rendering:geometricPrecision; image-rendering:optimizeQuality; fill-rule:evenodd; clip-rule:evenodd" xmlns:xlink="http://www.w3.org/1999/xlink">
<g><path style="opacity:0.907" fill="#8130d3" d="M 48.5,39.5 C 43.5,39.5 38.5,39.5 33.5,39.5C 23.2888,31.1424 22.9554,22.3091 32.5,13C 40.9668,9.11781 48.3001,10.6178 54.5,17.5C 53.1293,19.7054 51.296,21.372 49,22.5C 46.589,20.422 43.9223,18.7553 41,17.5C 33.2387,20.5012 31.7387,25.3345 36.5,32C 37.8732,32.8749 39.3732,33.3749 41,33.5C 44.0884,32.9558 46.755,31.6225 49,29.5C 51.1124,30.608 52.9458,32.108 54.5,34C 52.6038,36.068 50.6038,37.9013 48.5,39.5 Z"/></g>
<g><path style="opacity:0.907" fill="#8130d3" d="M 79.5,39.5 C 74.5,39.5 69.5,39.5 64.5,39.5C 54.2888,31.1424 53.9554,22.3091 63.5,13C 71.9668,9.11781 79.3001,10.6178 85.5,17.5C 84.1293,19.7054 82.296,21.372 80,22.5C 77.589,20.422 74.9223,18.7553 72,17.5C 64.2387,20.5012 62.7387,25.3345 67.5,32C 68.8732,32.8749 70.3732,33.3749 72,33.5C 75.0884,32.9558 77.755,31.6225 80,29.5C 82.1124,30.608 83.9458,32.108 85.5,34C 83.6038,36.068 81.6038,37.9013 79.5,39.5 Z"/></g>
<g><path style="opacity:0.876" fill="#8130d3" d="M 138.5,39.5 C 133.5,39.5 128.5,39.5 123.5,39.5C 120.63,36.4165 118.797,32.7499 118,28.5C 116.957,33.2793 114.457,36.946 110.5,39.5C 105.167,39.5 99.8333,39.5 94.5,39.5C 85.7805,32.2737 84.6139,23.9404 91,14.5C 96.2048,10.6812 102.038,9.5145 108.5,11C 113.838,13.0073 117.004,16.8406 118,22.5C 118.499,18.8484 118.665,15.1817 118.5,11.5C 121.167,11.5 123.833,11.5 126.5,11.5C 126.334,18.175 126.5,24.8417 127,31.5C 130.156,34.3988 132.822,34.0655 135,30.5C 135.5,24.1754 135.666,17.8421 135.5,11.5C 138.167,11.5 140.833,11.5 143.5,11.5C 143.666,18.175 143.5,24.8417 143,31.5C 142.262,34.6485 140.762,37.3152 138.5,39.5 Z M 99.5,17.5 C 106.455,17.29 109.955,20.6233 110,27.5C 108.268,32.6165 104.768,34.4499 99.5,33C 93.1339,27.8958 93.1339,22.7291 99.5,17.5 Z"/></g>
<g><path style="opacity:0.921" fill="#802fd4" d="M 366.5,39.5 C 361.167,39.5 355.833,39.5 350.5,39.5C 340.809,31.4745 340.142,22.6412 348.5,13C 362.359,6.76439 371.026,10.9311 374.5,25.5C 373.86,31.4596 371.194,36.1263 366.5,39.5 Z M 355.5,17.5 C 361.593,17.0842 365.26,19.9175 366.5,26C 364.425,33.1006 360.092,35.1006 353.5,32C 349.242,26.5227 349.908,21.6893 355.5,17.5 Z"/></g>
<g><path style="opacity:0.919" fill="#8130d3" d="M 24.5,39.5 C 21.8333,39.5 19.1667,39.5 16.5,39.5C 14.7658,35.6685 11.7658,34.5018 7.5,36C 6.66337,37.0113 6.33003,38.1779 6.5,39.5C 4.16667,39.5 1.83333,39.5 -0.5,39.5C -0.5,37.5 -0.5,35.5 -0.5,33.5C 2.53091,26.7552 5.19758,19.7552 7.5,12.5C 9.76488,11.3526 12.0982,11.1859 14.5,12C 17.9794,21.1231 21.3127,30.2897 24.5,39.5 Z M 10.5,25.5 C 11.2674,26.172 11.9341,27.0053 12.5,28C 10.9387,28.1881 10.272,27.3547 10.5,25.5 Z"/></g>
<g><path style="opacity:0.835" fill="#8130d2" d="M 170.5,39.5 C 167.833,39.5 165.167,39.5 162.5,39.5C 159.922,35.3536 157.089,31.3536 154,27.5C 153.501,31.4862 153.334,35.4862 153.5,39.5C 150.833,39.5 148.167,39.5 145.5,39.5C 145.5,30.1667 145.5,20.8333 145.5,11.5C 147.857,11.3367 150.19,11.5034 152.5,12C 155.788,16.0768 158.955,20.2435 162,24.5C 162.499,20.1794 162.666,15.8461 162.5,11.5C 165.167,11.5 167.833,11.5 170.5,11.5C 170.5,20.8333 170.5,30.1667 170.5,39.5 Z"/></g>
<g><path style="opacity:0.826" fill="#8130d2" d="M 190.5,39.5 C 187.833,39.5 185.167,39.5 182.5,39.5C 182.5,32.5 182.5,25.5 182.5,18.5C 179.5,18.5 176.5,18.5 173.5,18.5C 173.5,16.1667 173.5,13.8333 173.5,11.5C 181.833,11.5 190.167,11.5 198.5,11.5C 198.5,13.8333 198.5,16.1667 198.5,18.5C 195.833,18.5 193.167,18.5 190.5,18.5C 190.5,25.5 190.5,32.5 190.5,39.5 Z"/></g>
<g><path style="opacity:0.914" fill="#8130d3" d="M 227.5,39.5 C 224.5,39.5 221.5,39.5 218.5,39.5C 218.763,36.2657 217.263,34.9324 214,35.5C 210.737,34.9324 209.237,36.2657 209.5,39.5C 206.5,39.5 203.5,39.5 200.5,39.5C 203.756,30.9001 206.923,22.2335 210,13.5C 212.667,10.8333 215.333,10.8333 218,13.5C 221.077,22.2335 224.244,30.9001 227.5,39.5 Z"/></g>
<g><path style="opacity:0.952" fill="#8130d3" d="M 252.5,39.5 C 250.167,39.5 247.833,39.5 245.5,39.5C 242.343,35.1961 239.176,30.8628 236,26.5C 235.501,30.8206 235.334,35.1539 235.5,39.5C 233.167,39.5 230.833,39.5 228.5,39.5C 228.5,30.1667 228.5,20.8333 228.5,11.5C 230.857,11.3367 233.19,11.5034 235.5,12C 238.667,16.5 241.833,21 245,25.5C 245.499,20.8452 245.666,16.1785 245.5,11.5C 247.833,11.5 250.167,11.5 252.5,11.5C 252.5,20.8333 252.5,30.1667 252.5,39.5 Z"/></g>
<g><path style="opacity:0.902" fill="#8130d2" d="M 272.5,39.5 C 270.167,39.5 267.833,39.5 265.5,39.5C 265.5,32.5 265.5,25.5 265.5,18.5C 262.5,18.5 259.5,18.5 256.5,18.5C 256.5,16.1667 256.5,13.8333 256.5,11.5C 264.833,11.5 273.167,11.5 281.5,11.5C 281.5,13.8333 281.5,16.1667 281.5,18.5C 278.5,18.5 275.5,18.5 272.5,18.5C 272.5,25.5 272.5,32.5 272.5,39.5 Z"/></g>
<g><path style="opacity:0.927" fill="#8131d2" d="M 303.5,39.5 C 301.167,39.5 298.833,39.5 296.5,39.5C 296.5,30.1667 296.5,20.8333 296.5,11.5C 301.511,11.3341 306.511,11.5007 311.5,12C 320.356,18.2368 320.689,24.9035 312.5,32C 309.568,32.9533 306.568,33.4533 303.5,33.5C 303.5,35.5 303.5,37.5 303.5,39.5 Z M 303.5,18.5 C 310.564,18.3516 311.897,20.8516 307.5,26C 306.207,26.49 304.873,26.6567 303.5,26.5C 303.5,23.8333 303.5,21.1667 303.5,18.5 Z"/></g>
<g><path style="opacity:0.882" fill="#8130d3" d="M 339.5,39.5 C 336.5,39.5 333.5,39.5 330.5,39.5C 328.405,33.2047 327.405,33.2047 327.5,39.5C 324.833,39.5 322.167,39.5 319.5,39.5C 319.5,30.1667 319.5,20.8333 319.5,11.5C 324.844,11.334 330.177,11.5006 335.5,12C 343.472,18.7469 343.472,25.5802 335.5,32.5C 337.11,34.7254 338.443,37.0587 339.5,39.5 Z M 327.5,18.5 C 333.158,17.6794 334.825,19.846 332.5,25C 330.975,26.0086 329.308,26.5086 327.5,26.5C 327.5,23.8333 327.5,21.1667 327.5,18.5 Z"/></g>
<g><path style="opacity:0.87" fill="#802fd4" d="M 355.5,21.5 C 362.285,20.6259 364.285,23.1259 361.5,29C 354.54,30.2161 352.54,27.7161 355.5,21.5 Z"/></g>
<g><path style="opacity:0.899" fill="#8031d3" d="M 100.5,21.5 C 104.459,20.5778 106.792,22.0778 107.5,26C 107.241,27.2613 106.574,28.2613 105.5,29C 98.3844,30.151 96.7177,27.651 100.5,21.5 Z"/></g>
</svg>
