<?xml version="1.0" standalone="no"?>
<!DOCTYPE svg PUBLIC "-//W3C//DTD SVG 20010904//EN"
 "http://www.w3.org/TR/2001/REC-SVG-20010904/DTD/svg10.dtd">
<svg version="1.0" xmlns="http://www.w3.org/2000/svg"
 width="235.000000pt" height="25.000000pt" viewBox="0 0 235.000000 25.000000"
 preserveAspectRatio="xMidYMid meet">

<g transform="translate(0.000000,25.000000) scale(0.100000,-0.100000)"
fill="#000000" stroke="none">
<path d="M599 165 c-32 -17 -54 -66 -45 -100 11 -43 41 -65 89 -65 57 0 87 30
87 87 0 34 -6 46 -31 67 -34 29 -61 32 -100 11z m85 -47 c20 -29 20 -47 -1
-70 -33 -36 -93 -13 -93 37 0 52 65 74 94 33z"/>
<path d="M630 94 c-9 -10 -10 -18 -2 -26 12 -12 32 -2 32 17 0 21 -16 26 -30
9z"/>
<path d="M2199 165 c-32 -17 -54 -66 -45 -100 11 -43 41 -65 89 -65 57 0 87
30 87 87 0 34 -6 46 -31 67 -34 29 -61 32 -100 11z m85 -47 c20 -29 20 -47 -1
-70 -33 -36 -93 -13 -93 37 0 52 65 74 94 33z"/>
<path d="M2230 94 c-9 -10 -10 -18 -2 -26 12 -12 32 -2 32 17 0 21 -16 26 -30
9z"/>
<path d="M51 148 c-4 -13 -18 -49 -30 -81 -26 -70 -26 -67 -1 -67 11 0 20 5
20 10 0 14 46 13 70 -2 32 -21 33 -3 3 81 -28 82 -47 99 -62 59z m25 -85 c-10
-10 -19 5 -10 18 6 11 8 11 12 0 2 -7 1 -15 -2 -18z"/>
<path d="M224 160 c-53 -22 -69 -88 -33 -134 17 -22 29 -26 69 -26 52 0 83 21
62 42 -9 9 -15 9 -24 0 -21 -21 -66 -14 -84 13 -15 23 -15 27 0 50 18 27 63
34 84 13 9 -9 15 -9 24 0 27 27 -52 62 -98 42z"/>
<path d="M410 158 c-50 -27 -62 -97 -23 -140 21 -23 105 -25 123 -3 18 21 -3
46 -22 27 -15 -15 -61 -15 -76 0 -7 7 -12 24 -12 38 0 14 5 31 12 38 15 15 61
15 76 0 9 -9 15 -9 24 0 30 30 -57 63 -102 40z"/>
<path d="M750 107 c0 -81 17 -107 69 -107 56 0 71 22 71 103 0 52 -3 67 -15
67 -10 0 -15 -16 -17 -61 -3 -65 -19 -88 -52 -76 -12 5 -16 20 -16 72 0 58 -2
65 -20 65 -18 0 -20 -7 -20 -63z"/>
<path d="M920 85 c0 -69 3 -85 15 -85 11 0 15 12 15 45 0 25 3 45 8 45 4 0 21
-20 37 -45 17 -24 38 -45 48 -45 15 0 17 11 17 85 0 69 -3 85 -15 85 -11 0
-15 -12 -15 -45 0 -25 -4 -45 -10 -45 -5 0 -23 20 -40 45 -48 69 -60 61 -60
-40z"/>
<path d="M1100 150 c0 -15 7 -20 25 -20 24 0 25 -2 25 -65 0 -51 3 -65 15 -65
12 0 15 14 15 64 0 63 1 65 27 68 17 2 29 10 31 21 3 15 -5 17 -67 17 -64 0
-71 -2 -71 -20z"/>
<path d="M1325 161 c-13 -23 -55 -155 -50 -160 3 -3 15 0 25 7 25 15 55 15 80
0 10 -7 22 -10 25 -7 8 9 -48 162 -62 166 -6 2 -14 -1 -18 -6z m25 -86 c0 -8
-4 -15 -10 -15 -5 0 -10 7 -10 15 0 8 5 15 10 15 6 0 10 -7 10 -15z"/>
<path d="M1440 85 c0 -67 3 -85 14 -85 11 0 16 14 18 48 l3 47 34 -47 c20 -27
42 -48 53 -48 16 0 18 9 18 85 0 78 -2 85 -20 85 -17 0 -20 -7 -20 -52 l0 -52
-37 52 c-54 74 -63 69 -63 -33z"/>
<path d="M1610 150 c0 -16 7 -20 30 -20 l30 0 0 -65 c0 -51 3 -65 15 -65 12 0
15 14 15 65 0 63 1 65 25 65 18 0 25 5 25 20 0 18 -7 20 -70 20 -63 0 -70 -2
-70 -20z"/>
<path d="M1860 85 c0 -78 2 -85 20 -85 13 0 20 7 20 20 0 12 7 20 18 20 34 0
62 29 62 65 0 42 -29 65 -82 65 l-38 0 0 -85z m85 20 c0 -13 -8 -21 -22 -23
-19 -3 -23 1 -23 23 0 22 4 26 23 23 14 -2 22 -10 22 -23z"/>
<path d="M2010 85 c0 -69 3 -85 15 -85 8 0 15 9 15 20 0 11 4 20 9 20 5 0 13
-9 16 -20 3 -11 15 -20 26 -20 22 0 24 11 7 28 -9 9 -7 16 10 32 46 43 9 110
-61 110 l-37 0 0 -85z m83 33 c7 -23 -4 -38 -29 -38 -19 0 -24 5 -24 25 0 20
5 25 24 25 13 0 26 -6 29 -12z"/>
</g>
</svg>
